<?xml version="1.0" encoding="utf-8"?>
<!-- Generator: Adobe Illustrator 16.0.0, SVG Export Plug-In . SVG Version: 6.00 Build 0)  -->
<!DOCTYPE svg PUBLIC "-//W3C//DTD SVG 1.1//EN" "http://www.w3.org/Graphics/SVG/1.1/DTD/svg11.dtd">
<svg version="1.1" id="Layer_1" xmlns="http://www.w3.org/2000/svg" xmlns:xlink="http://www.w3.org/1999/xlink" x="0px" y="0px"
	 width="1864px" height="243.193px" viewBox="0 0 1864 243.193" enable-background="new 0 0 1864 243.193" xml:space="preserve">
<g>
	<defs>
		<rect id="SVGID_1_" width="1864" height="243.193"/>
	</defs>
	<clipPath id="SVGID_2_">
		<use xlink:href="#SVGID_1_"  overflow="visible"/>
	</clipPath>
	<path clip-path="url(#SVGID_2_)" fill="#3871B8" d="M177.177,61.75c-12.999-16.177-31.225-27.666-51.317-32.354l-1.283-0.299V49.37
		l0.751,0.22c30.998,9.093,52.648,38.028,52.648,70.362s-21.65,61.269-52.648,70.361l-0.751,0.222v20.272l1.283-0.3
		c20.092-4.688,38.318-16.177,51.317-32.354c13.197-16.421,20.465-37.092,20.465-58.202S190.374,78.171,177.177,61.75"/>
	<path clip-path="url(#SVGID_2_)" fill="#3871B8" d="M32.754,60.987c-13.599,16.558-21.088,37.499-21.088,58.965
		s7.489,42.407,21.088,58.965c13.413,16.334,32.126,27.707,52.691,32.026l1.26,0.265v-20.15l-0.779-0.204
		c-32.144-8.47-54.594-37.624-54.594-70.901c0-33.278,22.45-62.433,54.594-70.901l0.779-0.205v-20.15l-1.26,0.264
		C64.88,33.28,46.167,44.654,32.754,60.987"/>
	<path clip-path="url(#SVGID_2_)" fill="#1D3564" d="M135.4,76.698v52.507c0,2.219-0.233,4.343-0.681,6.376
		c-1.122,5.078-3.636,9.575-7.561,13.481c-5.495,5.471-12.126,8.207-19.894,8.207c-7.769,0-14.4-2.736-19.894-8.207
		c-3.205-3.191-5.469-6.775-6.803-10.748c-0.483-1.435-0.844-2.918-1.084-4.453c-0.234-1.504-0.355-3.055-0.355-4.656V78.832
		l-24.654,0.709v50.941c0,14.164,4.997,26.244,14.991,36.237c3.132,3.131,6.476,5.756,10.018,7.904
		c0.36,0.219,0.719,0.438,1.084,0.645c7.486,4.285,15.861,6.442,25.134,6.442c10.902,0,20.572-2.973,29.018-8.897
		c2.525-1.769,4.947-3.792,7.253-6.094C151.99,156.726,157,144.646,157,130.482V75.278L135.4,76.698z"/>
	<path clip-path="url(#SVGID_2_)" fill="#1D3564" d="M312.664,171.495c-10.589,13.962-24.267,20.451-39.121,20.451
		c-38.241,0-54.419-35.198-54.567-70.985c-0.146-35.988,17.356-72.561,54.567-72.561c13.971,0,27.208,7.079,37.797,21.038
		l-12.941,16.716c-6.768-8.848-15.885-12.978-24.856-12.978c-24.856,0-35.594,24.778-35.446,47.785
		c0.146,22.808,10.001,46.6,35.446,46.6c8.971,0,19.119-4.914,25.884-13.959L312.664,171.495z"/>
	<path clip-path="url(#SVGID_2_)" fill="#1D3564" d="M392.812,140.427c0,27.921-14.267,50.533-37.8,50.533
		c-23.532,0-37.652-22.612-37.652-50.533c0-27.727,14.415-50.537,37.506-50.537C377.958,89.89,392.812,112.7,392.812,140.427
		 M335.304,140.427c0,14.747,6.62,28.511,19.708,28.511c13.092,0,19.709-13.764,19.709-28.511c0-14.552-7.648-28.71-19.709-28.71
		C342.07,111.717,335.304,125.875,335.304,140.427"/>
	<path clip-path="url(#SVGID_2_)" fill="#1D3564" d="M458.548,188.799v-50.732c0-14.75-6.03-25.957-17.502-25.957
		c-11.032,0-18.533,12.388-18.533,27.137v49.553h-17.795V91.66h16.03l1.176,13.175c7.355-9.638,14.709-14.552,23.828-14.552
		c17.061,0,30.74,17.107,30.74,47.586v50.931H458.548z"/>
	<path clip-path="url(#SVGID_2_)" fill="#1D3564" d="M539.284,117.615c-5.148-6.488-11.03-8.653-17.943-8.653
		c-8.53,0-13.237,3.54-13.237,9.638c0,6.292,4.266,9.832,13.533,10.617c13.678,1.179,31.032,5.309,31.032,31.069
		c0,17.106-10.444,31.854-31.18,31.854c-11.472,0-22.943-2.556-33.535-17.306l8.826-17.105c5.148,7.67,16.913,13.371,25.003,13.569
		c6.764,0.195,13.09-4.521,13.09-11.604c0-6.684-4.119-9.437-14.414-10.223c-13.678-1.378-30.005-8.062-30.005-30.088
		c0-22.417,17.357-30.282,30.594-30.282c11.324,0,19.856,2.95,28.238,12.783L539.284,117.615z"/>
	<path clip-path="url(#SVGID_2_)" fill="#1D3564" d="M582.518,91.855v50.736c0,14.746,6.031,25.952,17.502,25.952
		c11.033,0,18.533-12.387,18.533-27.134V91.855h17.796v97.143h-16.03l-1.177-13.177c-7.502,9.83-14.415,14.549-24.563,14.549
		c-17.354,0-30.004-17.497-30.004-47.585v-50.93H582.518z"/>
	<path clip-path="url(#SVGID_2_)" fill="#1D3564" d="M700.47,188.799v-51.911c0-12.783-5.003-24.385-14.856-24.385
		c-9.707,0-15.444,11.602-15.444,24.385v51.911h-17.944V91.66h16.62l1.324,11.797c3.824-9.831,12.209-13.371,19.121-13.371
		c8.676,0,17.354,4.72,21.472,18.092c6.472-13.764,14.857-17.697,24.271-17.697c20.591,0,30.738,16.909,30.738,46.012v52.307
		h-17.943v-52.307c0-12.78-3.972-23.598-13.678-23.598c-9.709,0-15.737,11.21-15.737,23.993v51.911H700.47z"/>
	<path clip-path="url(#SVGID_2_)" fill="#1D3564" d="M799.291,148.882c1.179,11.994,8.974,20.646,21.622,20.646
		c6.617,0,15.295-3.341,19.417-9.048l11.469,15.143c-7.647,10.618-20.149,15.732-31.18,15.732
		c-25.003,0-39.858-20.646-39.858-51.717c0-29.498,15.002-50.733,38.534-50.733c24.27,0,39.418,20.057,36.621,59.977H799.291z
		 M838.708,129.023c-1.174-12.588-8.531-18.881-18.826-18.881c-9.706,0-17.648,6.293-20.295,18.881H838.708z"/>
	<path clip-path="url(#SVGID_2_)" fill="#1D3564" d="M886.355,91.855l1.322,11.211c5.591-11.995,13.091-13.766,20.448-13.766
		c7.499,0,14.704,3.933,18.677,9.243l-8.09,20.841c-3.679-4.13-7.061-6.291-12.944-6.291c-9.413,0-18.091,6.687-18.091,24.579V188.8
		h-17.944V91.855H886.355z"/>
	<path clip-path="url(#SVGID_2_)" fill="#1D3564" d="M1054.895,51.349v78.85c0,40.705-18.677,61.549-44.564,61.549
		c-24.708,0-45.742-20.056-45.742-61.549v-78.85h19.271v78.85c0,24.778,10.586,37.952,26.619,37.952
		c16.03,0,25.148-14.354,25.148-37.952v-78.85H1054.895z"/>
	<path clip-path="url(#SVGID_2_)" fill="#1D3564" d="M1097.83,64.523v27.53h20.004V112.7h-20.152v41.884
		c0,9.243,3.825,13.766,9.412,13.766c2.797,0,6.031-1.182,8.68-2.949l4.999,20.449c-5.143,2.753-9.412,3.931-14.851,4.129
		c-15.741,0.788-26.036-11.206-26.036-35.395V112.7h-13.529V92.053h13.529V67.081L1097.83,64.523z"/>
	<path clip-path="url(#SVGID_2_)" fill="#1D3564" d="M1150.771,64.523c0,18.679-21.178,18.679-21.178,0
		C1129.594,45.843,1150.771,45.843,1150.771,64.523 M1131.212,188.8h17.944V91.462h-17.944V188.8z"/>
	<rect x="1165.329" y="51.349" clip-path="url(#SVGID_2_)" fill="#1D3564" width="17.8" height="137.452"/>
	<path clip-path="url(#SVGID_2_)" fill="#1D3564" d="M1218.423,64.523c0,18.679-21.181,18.679-21.181,0
		C1197.242,45.843,1218.423,45.843,1218.423,64.523 M1198.858,188.8h17.943V91.462h-17.943V188.8z"/>
	<path clip-path="url(#SVGID_2_)" fill="#1D3564" d="M1258.276,64.523v27.53h19.999V112.7h-20.147v41.884
		c0,9.243,3.825,13.766,9.412,13.766c2.797,0,6.031-1.182,8.679-2.949l5,20.449c-5.146,2.753-9.412,3.931-14.856,4.129
		c-15.735,0.788-26.03-11.206-26.03-35.395V112.7h-13.529V92.053h13.529V67.081L1258.276,64.523z"/>
	<polygon clip-path="url(#SVGID_2_)" fill="#1D3564" points="1366.366,91.855 1322.097,229.305 1302.39,229.305 1315.919,187.227 
		1286.945,91.855 1307.833,91.855 1318.863,133.739 1325.775,161.071 1333.275,134.329 1346.514,91.855 	"/>
	<path clip-path="url(#SVGID_2_)" fill="#1D3564" d="M1497.553,171.495c-10.592,13.962-24.271,20.451-39.127,20.451
		c-38.238,0-54.416-35.198-54.564-70.985c-0.148-35.988,17.356-72.561,54.564-72.561c13.975,0,27.214,7.079,37.801,21.038
		l-12.944,16.716c-6.766-8.848-15.882-12.978-24.856-12.978c-24.852,0-35.59,24.778-35.442,47.785c0.148,22.808,10,46.6,35.442,46.6
		c8.975,0,19.122-4.914,25.888-13.959L1497.553,171.495z"/>
	<path clip-path="url(#SVGID_2_)" fill="#1D3564" d="M1523.575,51.151v53.879c6.468-11.207,14.411-14.549,22.646-14.549
		c20.592,0,29.714,18.679,29.714,47.19V188.8h-17.942v-50.932c0-17.697-6.914-25.168-16.476-25.168
		c-10.591,0-17.941,11.995-17.941,26.547V188.8h-17.944V51.151H1523.575z"/>
	<path clip-path="url(#SVGID_2_)" fill="#1D3564" d="M1663.143,140.427c0,27.921-14.266,50.533-37.8,50.533
		c-23.531,0-37.651-22.612-37.651-50.533c0-27.727,14.412-50.537,37.503-50.537C1648.291,89.89,1663.143,112.7,1663.143,140.427
		 M1605.635,140.427c0,14.747,6.622,28.511,19.708,28.511c13.091,0,19.709-13.764,19.709-28.511c0-14.552-7.649-28.71-19.709-28.71
		C1612.398,111.717,1605.635,125.875,1605.635,140.427"/>
	<path clip-path="url(#SVGID_2_)" fill="#1D3564" d="M1695.052,64.523c0,18.679-21.184,18.679-21.184,0
		C1673.868,45.843,1695.052,45.843,1695.052,64.523 M1675.486,188.8h17.942V91.462h-17.942V188.8z"/>
	<path clip-path="url(#SVGID_2_)" fill="#1D3564" d="M1771.82,176.411c-8.385,11.011-17.208,15.337-27.943,15.337
		c-21.036,0-38.534-16.913-38.534-51.32c0-34.416,17.498-51.324,38.534-51.324c10.295,0,18.239,3.932,26.177,14.354l-11.325,15.928
		c-4.265-5.113-9.557-7.668-14.56-7.668c-12.057,0-20.883,11.798-20.883,28.71c0,18.48,9.413,28.313,20.591,28.313
		c5.735,0,11.47-2.163,15.882-8.062L1771.82,176.411z"/>
	<path clip-path="url(#SVGID_2_)" fill="#1D3564" d="M1797.99,148.882c1.178,11.994,8.973,20.646,21.621,20.646
		c6.615,0,15.295-3.341,19.418-9.048l11.469,15.143c-7.648,10.618-20.148,15.732-31.18,15.732
		c-25.002,0-39.859-20.646-39.859-51.717c0-29.498,15.003-50.733,38.534-50.733c24.27,0,39.417,20.057,36.622,59.977H1797.99z
		 M1837.407,129.023c-1.176-12.588-8.531-18.881-18.827-18.881c-9.704,0-17.648,6.293-20.294,18.881H1837.407z"/>
</g>
</svg>
